<svg xmlns="http://www.w3.org/2000/svg" width="18" height="19" viewBox="0 0 18 19" focusable="false">
  <path fill="#2490FF" d="M14.245 11.525a1.03 1.03 0 0 0-1.455 0l-.727.727a1.028 1.028 0 0 1-1.455 0l-4.36-4.36a1.03 1.03 0 0 1 0-1.455l.727-.726a1.027 1.027 0 0 0 0-1.454L5.521 2.802a1.03 1.03 0 0 0-1.454 0L2.25 4.621c-.2.2-.305.586-.22.856.755 2.384 2.362 4.92 4.218 6.775 1.855 1.855 4.392 3.464 6.775 4.216.272.087.658-.018.858-.219l1.817-1.816a1.027 1.027 0 0 0 0-1.454l-1.453-1.454z"/>
</svg>
